# xmcd
#
# Track frame offsets: 
#        150
#        9503
#        23055
#        34848
#        47995
#        59448
#        71020
#        80195
#        93540
#        105628
#        115913
#        127715
#        141555
#        152228
#        162338
#        177978
#        190198
#        203805
#        216900
#        227748
#        239650
#        249720
#        259808
#        270500
#
# Disc length: 3757 seconds
#
# Revision: 7
# Processed by: cddbd v1.5.2PL0 Copyright (c) Steve Scherf et al.
# Submitted via: ExactAudioCopy v1.0b1
#
DISCID=640eab18
DTITLE=Various Artist - Country U.S.A. Vol. 3 1962
DYEAR=1988
DGENRE=Country
TTITLE0=Lester Flatt And Earl Scruggs - The Ballad Of Jed Clampett
TTITLE1=Claude King - Wolverton Mountain
TTITLE2=George Jones - She Thinks I Still Care
TTITLE3=Patsy Cline - Imagine That
TTITLE4=Don Gibson - I Can Mend Your Broken Heart
TTITLE5=Hank Snow - I've Been Everywhere
TTITLE6=Marty Robbins - Ruby Ann
TTITLE7=Carl Butler - Don't Let Me Cross Over
TTITLE8=Loretta Lynn - Success
TTITLE9=Billy Walker - Charlie's Shoes
TTITLE10=Porter Wagoner - Misery Loves Company
TTITLE11=Willie Nelson - Funny How Time Slips Away
TTITLE12=Don Gibson - Lonesome Number One
TTITLE13=Johnny Horton - Honky-Tonk Man
TTITLE14=Billy Anderson - Mama Sang A Song
TTITLE15=Stonewall Jackson - A Wound Time Can't Erase
TTITLE16=Patsy Cline - She's Got You
TTITLE17=Marty Robbins - Devil Woman
TTITLE18=Johnny Cash - In The Jailhouse Now
TTITLE19=Skeeter Davis - The End Of The World
TTITLE20=Wilburn Brothers - Trouble's Back In Town
TTITLE21=Willie Nelson - Touch Me
TTITLE22=Leroy Van Dyke - If A Woman Answers (Hang Up The Phone)
TTITLE23=Jim Reeves - Adios Amigo
EXTD=YEAR: 1962 ID3G: 2
EXTT0=
EXTT1=
EXTT2=
EXTT3=
EXTT4=
EXTT5=
EXTT6=
EXTT7=
EXTT8=
EXTT9=
EXTT10=
EXTT11=
EXTT12=
EXTT13=
EXTT14=
EXTT15=
EXTT16=
EXTT17=
EXTT18=
EXTT19=
EXTT20=
EXTT21=
EXTT22=
EXTT23=
PLAYORDER=
